<?xml version="1.0" encoding="UTF-8" standalone="no"?>
<!DOCTYPE svg PUBLIC "-//W3C//DTD SVG 1.1//EN" "http://www.w3.org/Graphics/SVG/1.1/DTD/svg11.dtd">
<svg width="100%" height="100%" viewBox="0 0 1080 1080" version="1.1" xmlns="http://www.w3.org/2000/svg" xmlns:xlink="http://www.w3.org/1999/xlink" xml:space="preserve" xmlns:serif="http://www.serif.com/" style="fill-rule:evenodd;clip-rule:evenodd;stroke-linecap:round;stroke-linejoin:round;stroke-miterlimit:1.5;">
    <rect id="Artboard1" x="0" y="0" width="1080" height="1080" style="fill:none;"/>
    <g id="Artboard11" serif:id="Artboard1">
        <g transform="matrix(0.866025,-0.5,0.5,0.866025,-122.877,428.447)">
            <clipPath id="_clip1">
                <path d="M1111.94,368.229C1149.35,303.426 1127.12,220.44 1062.32,183.026L458.474,-165.602C393.672,-203.016 310.685,-180.78 273.271,-115.977L-75.357,487.865C-112.77,552.667 -90.534,635.653 -25.732,673.067L578.11,1021.7C642.912,1059.11 725.899,1036.87 763.312,972.07L1111.94,368.229Z"/>
            </clipPath>
            <g clip-path="url(#_clip1)">
                <g transform="matrix(1.42264,0,0,0.598183,-180.34,-113.956)">
                    <path d="M492.089,944.186L397.566,944.186L356.585,544.048C355.349,532.62 353.977,504.214 352.466,458.829L351.643,458.829C349.583,498.99 347.593,527.396 345.671,544.048L301.395,944.186L201.312,944.186L130.883,241.864L228.495,241.864L253.207,655.225C253.619,660.449 254.236,675.632 255.06,700.773L256.296,741.423L257.531,741.423C257.806,732.934 258.63,718.486 260.003,698.079C261.375,677.672 262.68,662.408 263.915,652.286L309.426,241.864L406.421,241.864L444.313,658.163L446.99,699.793L449.049,740.444L449.873,740.444L450.491,723.302L453.168,655.225L478.909,241.864L566.637,241.864L492.089,944.186Z" style="fill-rule:nonzero;"/>
                    <path d="M753.212,944.186L731.177,792.848C726.921,763.136 721.395,739.791 714.6,722.812C707.804,705.834 700.424,697.344 692.462,697.344L688.961,697.344L688.961,944.186L599.998,944.186L599.998,241.864L718.203,241.864C759.527,241.864 790.04,257.944 809.741,290.105C829.441,322.267 839.292,370.508 839.292,434.831C839.292,483.154 833.56,523.641 822.097,556.292C810.633,588.943 793.575,612.615 770.922,627.308L770.922,629.267C783.415,638.409 793.815,653.266 802.121,673.836C810.427,694.406 817.875,724.934 824.465,765.422L853.501,944.186L753.212,944.186ZM744.769,464.706C744.769,441.198 741.748,422.587 735.708,408.873C729.667,395.16 720.194,388.303 707.289,388.303L688.961,388.303L688.961,548.946L705.024,548.946C716.968,548.946 726.578,540.946 733.854,524.947C741.131,508.948 744.769,488.868 744.769,464.706Z" style="fill-rule:nonzero;"/>
                </g>
                <g transform="matrix(1.42264,0,0,0.598183,-143.353,294.839)">
                    <path d="M316.401,808.064L316.401,564.259C316.401,541.306 316.705,516.077 317.314,488.574L317.705,468.102L316.14,468.102C313.357,503.049 311.227,527.244 309.749,540.685L282.23,808.064L229.277,808.064L200.454,543.787C199.671,537.17 197.628,511.941 194.324,468.102L192.759,468.102C193.976,537.583 194.585,581.009 194.585,598.379L194.585,808.064L145.154,808.064L145.154,363.26L229.538,363.26L255.232,604.893C255.84,609.856 256.645,619.937 257.645,635.136C258.645,650.335 259.275,662.071 259.536,670.342L260.318,670.342C261.275,651.524 262.796,629.294 264.883,603.653L288.881,363.26L371.961,363.26L371.961,808.064L316.401,808.064Z" style="fill-rule:nonzero;"/>
                    <path d="M572.554,778.907C565.511,788.419 554.99,796.949 540.991,804.497C526.992,812.045 513.646,815.818 500.951,815.818C468.171,815.818 442.869,796.329 425.044,757.349C407.219,718.369 398.307,663.725 398.307,593.416C398.307,546.268 402.807,504.394 411.806,467.792C420.805,431.19 433.478,403.377 449.825,384.352C466.171,365.328 485.43,355.815 507.603,355.815C523.862,355.815 541.209,361.295 559.642,372.255L559.642,489.195C551.034,479.889 542.774,473.427 534.861,469.808C526.949,466.189 518.297,464.38 508.907,464.38C493.43,464.38 481.105,475.443 471.932,497.57C462.758,519.696 458.172,550.094 458.172,588.764C458.172,625.779 462.019,654.729 469.714,675.615C477.409,696.501 488.169,706.944 501.994,706.944C508.429,706.944 513.167,706.117 516.211,704.462L516.211,640.875L480.344,640.875L480.344,539.444L572.554,539.444L572.554,778.907Z" style="fill-rule:nonzero;"/>
                    <path d="M699.978,808.064L686.023,712.217C683.327,693.399 679.828,678.614 675.524,667.861C671.22,657.108 666.546,651.731 661.503,651.731L659.286,651.731L659.286,808.064L602.943,808.064L602.943,363.26L677.806,363.26C703.978,363.26 723.302,373.444 735.78,393.813C748.257,414.182 754.496,444.735 754.496,485.472C754.496,516.077 750.865,541.719 743.605,562.398C736.345,583.077 725.541,598.069 711.195,607.375L711.195,608.615C719.107,614.406 725.694,623.814 730.954,636.842C736.214,649.87 740.931,669.205 745.105,694.847L763.495,808.064L699.978,808.064ZM694.631,504.394C694.631,489.505 692.718,477.718 688.892,469.033C685.066,460.347 679.067,456.005 670.894,456.005L659.286,456.005L659.286,557.745L669.459,557.745C677.024,557.745 683.11,552.679 687.718,542.546C692.327,532.414 694.631,519.696 694.631,504.394Z" style="fill-rule:nonzero;"/>
                </g>
            </g>
        </g>
        <g id="MGR" transform="matrix(1,0,0,1,0.500771,-45.0665)">
            <path d="M1023.71,236.438C1023.71,161.611 962.955,100.861 888.127,100.861L190.871,100.861C116.044,100.861 55.293,161.611 55.293,236.438L55.293,933.695C55.293,1008.52 116.044,1069.27 190.871,1069.27L888.127,1069.27C962.955,1069.27 1023.71,1008.52 1023.71,933.695L1023.71,236.438Z" style="fill:none;stroke:black;stroke-width:58.43px;"/>
        </g>
    </g>
</svg>
